<?xml version="1.0" encoding="UTF-8" standalone="no"?>
<svg
   xmlns:dc="http://purl.org/dc/elements/1.1/"
   xmlns:cc="http://creativecommons.org/ns#"
   xmlns:rdf="http://www.w3.org/1999/02/22-rdf-syntax-ns#"
   xmlns:svg="http://www.w3.org/2000/svg"
   xmlns="http://www.w3.org/2000/svg"
   xmlns:sodipodi="http://sodipodi.sourceforge.net/DTD/sodipodi-0.dtd"
   xmlns:inkscape="http://www.inkscape.org/namespaces/inkscape"
   width="64"
   height="64"
   viewBox="0 0 16.933333 16.933334"
   version="1.1"
   id="svg8"
   inkscape:version="1.0 (4035a4fb49, 2020-05-01)"
   sodipodi:docname="MBDyn_WorkbenchContainer.svg">
  <defs
     id="defs2" />
  <sodipodi:namedview
     inkscape:snap-midpoints="true"
     id="base"
     pagecolor="#ffffff"
     bordercolor="#666666"
     borderopacity="1.0"
     inkscape:pageopacity="0.0"
     inkscape:pageshadow="2"
     inkscape:zoom="7.9195959"
     inkscape:cx="28.757637"
     inkscape:cy="32.960621"
     inkscape:document-units="px"
     inkscape:current-layer="g2311"
     inkscape:document-rotation="0"
     showgrid="true"
     units="px"
     inkscape:window-width="1366"
     inkscape:window-height="728"
     inkscape:window-x="0"
     inkscape:window-y="0"
     inkscape:window-maximized="0">
    <inkscape:grid
       type="xygrid"
       id="grid833"
       originx="25.399999"
       originy="0" />
  </sodipodi:namedview>
  <metadata
     id="metadata5">
    <rdf:RDF>
      <cc:Work
         rdf:about="">
        <dc:format>image/svg+xml</dc:format>
        <dc:type
           rdf:resource="http://purl.org/dc/dcmitype/StillImage" />
        <dc:title />
      </cc:Work>
    </rdf:RDF>
  </metadata>
  <g
     inkscape:label="Calque 1"
     inkscape:groupmode="layer"
     id="layer1"
     style="display:inline">
    <g
       transform="matrix(0.00627493,0,0,0.00723377,-5.2822996,-2.0974173)"
       id="g2311">
      <path
         inkscape:connector-curvature="0"
         transform="translate(-28.02861,8.28986)"
         id="path2299"
         d="m 2079.4537,1461.4845 c 35.3617,70.3172 70.668,141.7578 108.2222,212.7271 44.6795,84.6712 93.2402,169.5601 151.5108,248.468 8.1493,11.061 16.4861,21.5549 24.8203,31.6511 9.8404,11.9342 19.8194,23.5405 29.8338,34.9226 23.4712,26.676 47.3888,52.5591 71.3444,78.106 26.7359,28.5183 53.6413,56.709 80.5001,84.8353 27.2844,28.5735 54.5393,57.0744 81.5629,85.7498 0,1e-4 0,1e-4 0,1e-4 25.1082,26.6451 50.0117,53.3853 74.3706,80.6065 20.2645,22.6544 40.171,45.4816 58.8666,69.3145 7.2996,9.3065 14.3927,18.7314 21.019,28.4831 1e-4,0 1e-4,0 1e-4,0 5.1216,7.5477 9.9937,15.2049 14.0313,23.3186 1.5382,3.0917 2.948,6.2311 4.081,9.4724 0,0 0,0 0,0 0.8977,2.5773 1.6378,5.1967 1.9698,7.8844 0.2525,2.0818 0.2821,4.2025 -0.2442,6.2313 -0.4392,1.7012 -1.3137,3.3302 -2.6247,4.5883 1.4645,-1.0755 2.6033,-2.6222 3.3041,-4.3633 0.828,-2.0609 1.1179,-4.3248 1.1282,-6.5443 0.019,-2.8641 -0.3831,-5.723 -0.966,-8.5055 0,0 0,0 0,-10e-5 -0.7315,-3.5083 -1.7558,-6.9509 -2.9149,-10.3214 -1e-4,0 -1e-4,0 -1e-4,0 -3.0367,-8.8345 -6.9773,-17.3488 -11.149,-25.6416 0,0 0,0 0,0 -5.4037,-10.7535 -11.3189,-21.2466 -17.4257,-31.5731 -15.6327,-26.4395 -32.6273,-52.0793 -49.8783,-77.3658 0,0 -10e-5,0 -10e-5,0 -20.7652,-30.4427 -42.1255,-60.4656 -63.6199,-90.2962 -23.1452,-32.1223 -46.5048,-64.0495 -69.7984,-95.9337 -22.9394,-31.3991 -45.8252,-62.7412 -68.3575,-94.1875 -20.2151,-28.2138 -40.1105,-56.3964 -59.1349,-84.8148 0,0 0,-10e-5 0,-10e-5 -8.1072,-12.112 -16.0031,-24.1927 -23.5531,-36.2988 -6.4157,-10.2939 -12.5021,-20.434 -18.0192,-30.5044 -43.9708,-79.1807 -78.3163,-164.0639 -110.7832,-251.1301 -27.0879,-72.9321 -52.3007,-147.1925 -78.3746,-222.1809 -10.9798,-21.5109 -22.0342,-43.0775 -33.2273,-64.6534 -25.4642,-49.4666 -53.9201,-96.0073 -83.7112,-140.5331 -28.0543,-41.984 -57.3584,-82.4023 -87.0983,-121.9291 0,0 0,0 0,0 -23.9669,-31.883 -48.0825,-62.7152 -71.2558,-93.59648 0,-10e-6 0,-3e-5 -10e-5,-5e-5 -8.2154,-10.97406 -16.0824,-21.49522 -23.1925,-31.92752 -2.6264,-3.8631 -5.0197,-7.41432 -7.0603,-10.74204 -1.5479,-2.6614 -2.7133,-4.36369 -3.2306,-5.2513 -3.0886,-6.41148 -5.3763,-14.37556 -7.5309,-23.37254 -2.3659,-10.161 -4.0933,-21.0955 -5.6946,-32.59538 -3.5384,-25.7808 -6.1141,-53.06928 -10.5701,-81.04022 -4.5555,-29.16117 -11.5102,-59.09167 -23.464,-87.71326 -6.0547,-14.39865 -13.5178,-28.32507 -22.4948,-41.30976 0,-2e-5 0,-4e-5 -10e-5,-6e-5 -9.3452,-13.48925 -20.2947,-25.72572 -32.5419,-36.35008 -23.7522,-20.48498 -51.2109,-35.27269 -79.8531,-44.68289 0,-10e-6 0,-10e-6 0,-10e-6 -29.2274,-9.58896 -59.3875,-13.92245 -89.1962,-14.75503 -30.9608,-0.87218 -61.6406,1.92376 -91.6826,7.12965 -29.9114,5.18454 -59.2162,12.77854 -87.7687,22.23908 29.529,-5.5871 59.2937,-9.173 88.9557,-10.31411 29.7941,-1.13499 59.4298,0.14013 88.1057,4.84623 27.5819,4.55603 54.2421,12.12164 78.14,23.82372 10e-5,2e-5 10e-5,2e-5 10e-5,3e-5 23.263,11.38151 44.1744,26.63126 60.2972,45.09184 8.048,9.1658 14.8817,19.36144 20.355,30.14138 5.3106,10.39849 9.4187,21.61048 12.5981,33.24465 6.4652,23.20197 8.5514,48.46437 9.4289,74.85894 0.7107,25.15028 -0.3218,51.62041 -0.176,79.72447 0.039,12.56934 0.4113,25.813 1.6648,39.73298 1.0262,12.24972 3.1515,25.60474 7.1851,39.83971 2.1671,6.8384 4.3782,12.39581 6.3348,16.70465 2.6617,6.05486 5.354,11.60964 7.9337,16.70039 6.9201,13.70371 14.0942,26.60071 21.01,38.87131 0,0 0,0 0,10e-5 19.5804,34.806 39.5327,68.6841 58.4406,102.2327 23.6507,41.9544 46.3777,83.9106 67.1796,126.1809 22.1174,44.9947 42.1793,90.0436 58.3212,135.3588 8.0863,22.3437 16.0866,44.7988 24.0772,67.3473 z"
         style="display:inline;fill:#be0000;fill-opacity:1;stroke:#be0000;stroke-width:13.3333;stroke-linecap:butt;stroke-linejoin:miter;stroke-miterlimit:4;stroke-dasharray:none;stroke-opacity:1" />
      <path
         inkscape:connector-curvature="0"
         transform="translate(-16.69964,-1.19283)"
         id="path2301"
         d="m 1876.8917,1749.1075 c 22.1922,20.5393 44.4705,40.764 66.5887,60.9408 49.0766,44.849 100.1267,86.8583 151.9203,127.3724 48.5817,38.0093 97.8529,74.6612 146.9348,111.2503 41.1231,30.6697 82.0778,60.9519 121.2767,93.0883 15.3298,12.5733 30.285,25.3173 44.3593,38.7869 10.9221,10.5013 21.247,21.0593 29.754,32.583 0,0 0,1e-4 0,1e-4 20.3079,27.51 40.7486,55.1113 62.1511,82.0575 23.8081,29.9809 48.743,59.2376 75.7284,86.5241 0,0 1e-4,0 1e-4,0 25.9155,26.2277 53.8526,50.876 85.0175,70.6383 0,0 0,0 0,0 14.1552,8.9749 29.0223,16.8884 44.5951,22.9798 14.5277,5.6838 29.7031,9.7435 45.1085,11.3601 -15.2709,-2.596 -30.0029,-7.5859 -43.9415,-14.0865 -14.9446,-6.9708 -29.0019,-15.6659 -42.3103,-25.3374 -29.3261,-21.308 -55.0002,-47.1473 -78.8343,-74.5003 0,-1e-4 -1e-4,-1e-4 -1e-4,-1e-4 -24.7691,-28.4535 -47.3777,-58.7275 -68.9695,-89.7739 -19.3795,-27.8736 -37.8417,-56.4602 -56.3421,-85.1843 0,0 -10e-5,0 -10e-5,0 -9.1221,-14.0212 -19.7651,-26.539 -30.5578,-38.2141 -13.9691,-15.1697 -28.6728,-29.4407 -43.5086,-43.2619 -37.9004,-35.3244 -77.3498,-68.6132 -116.3641,-101.7656 -46.672,-39.67 -93.2551,-79.1731 -138.6407,-119.6138 0,-10e-5 0,-10e-5 0,-10e-5 -48.421,-43.1515 -95.5965,-87.2909 -140.0637,-133.5048 -20.8564,-21.658 -41.6977,-43.1703 -62.2313,-64.7516 -41.8013,-38.3796 -82.5799,-77.1058 -120.6493,-118.0387 -24.5204,-26.3724 -47.7473,-53.4553 -68.1995,-82.2064 -18.1577,-25.578 -34.2185,-52.26 -46.0587,-80.4808 -6.681,-16.0488 -12.0509,-32.1036 -14.3115,-48.1601 0,0 0,0 0,0 -1.7635,-11.406 -1.7181,-23.8605 -1.3389,-37.0006 0.507,-13.8276 0.9342,-28.4896 -0.3543,-43.7411 -1.9081,-20.9241 -6.7812,-40.9649 -13.245,-59.9733 -18.413,-54.1554 -35.2296,-109.0768 -52.0535,-164.095 -17.5071,-57.256 -34.8088,-114.67012 -53.169,-171.74258 -8.176,-25.4155 -16.5647,-50.77502 -25.467,-75.94122 0,-10e-6 0,-3e-5 0,-5e-5 -7.4426,-21.04046 -15.2075,-41.97998 -23.8983,-62.48967 -3.5156,-8.29643 -7.1859,-16.51693 -11.1503,-24.56916 -3.2395,-6.57824 -6.6541,-13.04192 -10.4693,-19.20452 -2.9083,-4.68598 -5.974,-9.18982 -9.5583,-13.0676 -1.3619,-1.47193 -2.7622,-2.8291 -4.2503,-3.95984 -1.2187,-0.91553 -2.4298,-1.68763 -3.6445,-2.15062 1.1691,0.56412 2.2991,1.41975 3.432,2.4066 1.3822,1.21895 2.6588,2.64731 3.8995,4.18497 3.2683,4.05379 5.9716,8.67075 8.5479,13.48423 3.3672,6.3239 6.3163,12.91297 9.1036,19.62714 0,2e-5 0,4e-5 0,5e-5 3.4067,8.21449 6.511,16.57535 9.4672,25.01852 7.3093,20.87728 13.6669,42.10921 19.7266,63.48784 0,2e-5 10e-5,4e-5 10e-5,6e-5 7.2412,25.55663 13.9603,51.27575 20.478,77.07973 0,2e-5 0,4e-5 0,5e-5 14.6352,57.94391 28.203,116.19657 42.0367,174.50777 13.2756,55.9746 26.6174,112.1028 41.7234,168.0325 4.6072,17.3783 7.7415,34.7297 8.0846,51.6476 0.3502,12.0024 -0.9492,24.808 -2.2484,38.4869 -1.4158,13.99 -2.2906,28.9351 -1.1101,44.7588 0,0 0,10e-5 0,10e-5 1.8182,21.423 6.9603,41.8054 13.6647,60.8022 11.6335,33.2636 27.6063,64.4619 45.7549,93.6183 20.3543,32.7719 43.3221,63.4358 67.2705,92.6494 37.0381,45.2041 76.4785,87.85 116.3161,129.4413 z"
         style="display:inline;fill:#be0005;fill-opacity:1;stroke:#be0000;stroke-width:26.6667;stroke-linecap:butt;stroke-linejoin:miter;stroke-miterlimit:4;stroke-dasharray:none;stroke-opacity:1" />
      <path
         inkscape:connector-curvature="0"
         id="path2303"
         d="m 1966.0248,1124.9847 c -5.1401,3.7864 -10.2858,7.5388 -15.0996,11.0455 -3.1327,2.2917 -5.702,4.1225 -7.9675,5.8305 -15.686,11.8902 -27.8503,24.2324 -37.2866,35.9512 -7.3457,9.0861 -12.9039,17.3048 -17.5331,24.8837 -11.1032,17.9507 -16.8452,31.7541 -25.8048,32.9663 -4.1991,0.5681 -9.1298,-2.0496 -13.5593,-9.4296 -4.2682,-7.1111 -8.5361,-19.809 -8.3069,-37.5162 0.1722,-12.6489 2.6216,-28.1859 9.1469,-45.2467 7.7609,-20.3625 21.3019,-43.6933 42.9833,-65.58 3.2086,-3.231 6.0358,-5.963 8.823,-8.7119 4.7157,-4.6109 9.5424,-9.2163 14.5562,-13.9269 0,0 0.098,-0.092 0.098,-0.092 12.4712,-11.7071 28.501,-25.1239 47.9592,-40.1813 40.3304,-31.20951 94.3825,-68.679 159.1871,-109.57861 62.029,-39.1531 133.9154,-81.4519 211.9665,-122.89452 36.5299,-19.39632 74.5151,-38.64508 113.6336,-57.19536 36.4568,-17.29044 73.9344,-33.99359 112.2827,-49.46332 77.8969,-31.37668 156.6698,-59.1249 234.767,-84.80292 81.674,-26.85809 161.3168,-50.9117 235.8785,-72.31607 71.0724,-20.40279 136.5838,-38.11766 194.8437,-53.23802 24.5014,-6.35887 47.2802,-12.14341 68.7394,-17.47282 15.2272,-3.7823 28.9807,-7.14673 42.4673,-10.32796 16.4211,-3.66904 31.142,-4.10271 43.6047,-2.37514 13.8916,1.84065 25.5361,6.24451 34.0413,10.45403 13.401,6.47717 23.1473,14.95627 24.0982,15.79568 11.8497,10.45996 16.6879,20.91426 17.2594,25.52401 0.637,5.13847 -2.8833,5.12391 -8.7092,-0.1115 -0.2033,-0.18268 -4.8957,-4.3713 -10.9017,-8.81675 -6.1612,-4.56036 -16.2922,-11.37988 -28.1864,-15.523 -8.1038,-2.98561 -17.9362,-5.37441 -28.5224,-5.67702 -10.2859,-0.44709 -22.0439,1.23923 -34.9493,5.31442 -13.1748,4.24082 -26.4886,8.63638 -41.1547,13.51736 -21.062,7.01044 -43.1517,14.46937 -66.7732,22.55002 -57.3622,19.62332 -120.7789,41.89163 -189.2039,66.83285 -72.774,26.52804 -149.7953,55.54821 -228.4152,86.9506 -75.7479,30.2633 -151.2577,61.89699 -225.3425,96.32372 -35.8598,16.65347 -71.0878,34.46942 -105.6076,52.78642 -37.0669,19.67246 -73.2089,39.91019 -108.1372,60.11927 -74.6913,43.21517 -144.2458,86.54452 -204.8684,125.35178 -64.1792,41.08945 -116.7223,76.07025 -158.9278,104.23625 -18.036,12.0373 -39.1049,26.1136 -50.7232,33.8091 -6e-4,4e-4 -0.3586,0.2376 -0.3593,0.238 -5.5883,3.7009 -10.6551,7.0791 -15.567,10.4061 -3.3122,2.2608 -5.8418,3.9439 -8.1791,5.5995 -19.4464,13.8767 -30.7106,27.9926 -36.694,36.7634 -8.3143,12.168 -9.7385,16.8954 -9.2503,15.8822 0.4614,-0.9578 3.5635,-7.5596 9.2502,-15.8823 9.3806,-13.7506 21.9365,-26.2327 36.694,-36.7634 0,0 0,0 0,0 2.2778,-1.6135 5.5332,-3.7935 8.1791,-5.5995 9.205,-6.235 15.567,-10.4062 15.567,-10.4062 0,-9e-4 0,0 0,0 z"
         style="display:inline;fill:#ff7d00;fill-opacity:1;stroke:none;stroke-width:6.66667;stroke-linecap:butt;stroke-linejoin:miter;stroke-miterlimit:4;stroke-dasharray:none;stroke-opacity:1" />
      <path
         inkscape:connector-curvature="0"
         transform="translate(926.14046,346.37948)"
         id="path2305"
         d="m 1851.4649,550.85924 c -41.3971,28.96578 -81.8492,59.02738 -121.5901,89.74909 -63.0436,48.71578 -124.6035,99.44681 -184.3096,152.3519 -0.019,0.017 -0.04,0.0351 -0.061,0.0531 -2e-4,1.7e-4 -3.0786,2.69998 -3.0788,2.70015 -29.7924,26.16029 -58.4812,52.35224 -86.1509,78.86444 -26.5407,25.42517 -51.6979,50.72384 -75.624,76.49932 -21.9755,23.65339 -42.4365,47.22973 -61.3942,71.74106 -16.2067,20.8322 -31.076,42.2857 -43.741,65.717 -1.9389,2.5249 -1.2718,2.5684 0,0.9663 0.8856,-0.8017 2.3552,-1.617 4.4189,-2.5646 2.0434,-0.8368 4.0923,-1.3338 6.2389,-1.5215 2.1544,-0.1058 3.7199,-0.06 4.7887,0.2149 0,0 0,0 0,0 1.1019,0.2844 1.5778,0.384 1.4627,0.4168 -0.6004,0.024 -2.4478,-1.376 -5.5753,-3.4341 -3.7837,-2.7092 -7.8479,-6.3622 -12.2353,-10.4384 -5.3392,-5.0151 -10.7052,-10.5445 -16.0249,-16.1429 -14.004,-14.7629 -27.1937,-29.6127 -40.0428,-43.4272 0,0 -10e-5,0 -10e-5,0 -18.3217,-19.72583 -34.1444,-35.6348 -49.7125,-49.84279 -6.8562,-6.26853 -13.3092,-11.84585 -19.359,-16.82139 -0.043,-0.0371 0.011,0.009 -0.033,-0.0286 0.012,0.0107 0.022,0.019 0.033,0.0286 0,0 -0.4634,-0.38131 -0.4666,-0.38406 0.1466,0.1174 0.256,0.20913 0.4011,0.32917 10e-5,-1.1e-4 0.012,0.0106 0.012,0.0106 -6.0497,-5.29268 -11.1921,-9.49881 -15.216,-12.66331 -8.3072,-6.56726 -16.6353,-12.58661 -24.9844,-18.08267 -19.5189,-12.88925 -38.798,-22.26473 -57.1046,-28.70296 -5.1216,-1.80124 -10.1307,-3.35976 -15.0094,-4.69632 -24.6756,-6.7214 -45.47155,-7.16023 -59.38153,-5.40515 -14.09281,1.77816 -21.74997,5.74301 -22.70327,9.41047 -1.02388,3.93904 4.65736,7.47877 16.31815,12.44455 10.49805,4.47062 30.61225,11.93427 51.59495,23.59787 16.6948,9.26342 34.7857,21.43465 55.124,38.93757 10.4708,9.02283 21.0848,19.13441 32.281,30.8201 4.8355,5.04683 9.894,10.35922 15.6259,16.48252 13.6649,14.6172 26.2116,28.6945 43.786,48.9195 10.9373,12.6017 25.6563,29.8689 39.5502,44.9987 0.3491,0.3805 0.6997,0.7619 1.052,1.1441 4.7906,6.4363 9.9813,13.0964 15.6968,19.7734 4.9219,5.7948 10.6114,11.8636 17.3713,17.8625 5.1389,4.7275 11.9089,9.6313 20.7254,14.0426 3.7212,1.8262 8.1155,3.4131 13.2056,4.6325 4.6561,1.1161 9.8775,1.6053 15.6196,1.3492 5.6107,-0.3206 11.1498,-1.4926 16.513,-3.5357 0,0 10e-5,0 10e-5,0 5.6171,-2.2258 10.5129,-4.9769 14.6108,-8.1483 1.7716,-1.4412 3.4446,-2.8908 5.0202,-4.3421 6.6858,-6.1581 11.9423,-12.6281 15.3877,-18.8648 10.5845,-15.6956 22.7658,-30.2306 40.9402,-51.6205 17.4115,-20.3451 39.6065,-45.2846 57.0179,-65.6297 5.8533,-6.8139 11.8421,-13.84987 17.9043,-21.06677 13.3878,-15.93793 27.0579,-31.53698 40.8223,-46.79654 2.2295,-1.80505 8.1662,-6.60269 10.3958,-8.40774 23.4535,-18.96591 54.0455,-43.79 86.7069,-73.08497 0,0 0,0 0,0 13.4662,-12.07749 27.4556,-25.0684 41.7526,-38.99102 24.8419,-24.19143 49.3599,-47.29602 73.3594,-69.31729 19.5299,-13.57092 41.4166,-29.31267 64.5547,-47.44984 14.5224,-11.37951 29.5131,-23.69295 44.818,-37.05098 39.5248,-34.49706 76.7143,-65.26155 112.7066,-93.33412 4.4819,-2.43034 9.0906,-4.94437 13.8174,-7.54856 33.3109,-18.39039 71.6807,-41.98757 110.512,-73.39255 18.7804,-15.18865 36.4281,-29.42025 53.657,-43.24953 66.9897,-53.76825 117.2738,-93.24462 164.6045,-129.20893 0,0 0,-1e-5 0,-1e-5 29.3142,-22.27434 53.992,-40.50217 76.511,-56.64185 14.4768,-10.37797 27.2675,-19.32688 39.2256,-27.46624 10.8541,-6.81749 20.6747,-12.81235 29.6775,-18.17481 30.3356,-18.10742 47.6981,-26.65153 58.225,-31.73737 0.9971,-0.48259 1.8831,-0.90782 2.6358,-1.26862 8.8993,-4.26606 14.7271,-6.96565 21.6006,-10.1159 11.0372,-5.2268 20.2601,-8.35386 22.0545,-10.16449 1.4791,-1.49252 -3.5838,-2.78911 -15.2509,0.0219 -0.7586,0.18276 -4.5131,1.06006 -9.0921,2.48703 -6.4932,1.93641 -14.9819,4.74078 -25.9453,9.15403 -17.2301,6.91437 -35.8916,15.4428 -61.08,28.37032 -22.1584,11.33997 -45.5295,24.05726 -73.0652,39.74701 -25.6967,14.63723 -52.4949,30.42391 -82.209,48.37108 -55.5109,33.52779 -111.8472,68.86846 -177.4204,110.73313 -57.0694,36.43373 -107.8999,69.39495 -169.3564,108.97983 -62.4749,40.25894 -123.3051,83.78271 -183.7625,129.82959 -21.5067,16.37401 -42.8174,32.96748 -63.9189,49.78595 22.4426,-18.2864 43.6915,-35.1577 63.3736,-50.49922 71.447,-55.71318 121.1895,-90.27302 121.1895,-90.27302 -10e-5,-1.4e-4 -10e-5,-2.9e-4 -2e-4,-4.3e-4 z"
         style="display:inline;fill:#ff7d00;fill-opacity:1;stroke:none;stroke-width:1px;stroke-linecap:butt;stroke-linejoin:miter;stroke-opacity:1" />
      <path
         inkscape:connector-curvature="0"
         transform="translate(926.14046,346.37948)"
         id="path2307"
         d="m 1234.3996,1028.6371 c -86.3394,-93.00149 -144.7339,-136.39861 -204.0118,-151.36695 -7.8183,-1.97421 -28.6718,-4.35975 -31.93654,-6.0893 -5.83417,-3.09074 -8.76364,-21.22077 -9.20917,-24.64609 l -2.55771,-19.66443 16.80452,-17.44034 c 16.6295,-15.66301 88.6927,-64.63603 94.0806,-64.63603 5.4683,0 88.1482,110.98386 124.652,171.41266 18.8511,31.20648 61.0657,115.34758 57.4841,141.76848 3.4565,7.8139 4.4603,13.2827 2.9377,16.0035 -1.8376,3.2837 -11.7531,-6.0353 -48.2437,-45.3415 z"
         style="display:inline;opacity:1;vector-effect:none;fill:#ffffff;fill-opacity:1;stroke:#ffffff;stroke-width:5.33333;stroke-linecap:butt;stroke-linejoin:miter;stroke-miterlimit:10;stroke-dasharray:none;stroke-dashoffset:0;stroke-opacity:1" />
      <path
         inkscape:connector-curvature="0"
         id="path2309"
         d="m 1449.6648,587.91641 c 30.0625,15.25298 32.4795,41.78675 21.3837,59.71238 -11.294,18.24578 -35.864,28.46447 -62.3598,15.7224 0,0 -29.1216,-20.28582 -75.405,-45.02122 -48.6807,-26.01658 -107.5909,-51.87222 -175.71,-71.45816 -44.5443,-12.82124 -87.5077,-21.48117 -125.9691,-27.49775 -29.5887,-4.63053 -58.21834,-7.84853 -75.8149,-9.73685 -18.69787,-2.0065 -29.64924,-3.0446 -29.64924,-3.0446 0,0 10.76219,-0.75863 29.4527,-1.84067 17.45426,-1.01047 46.56524,-2.55602 77.22604,-2.84288 38.6507,-0.36095 83.6775,1.0903 132.2347,6.73506 52.6223,6.14051 104.5338,16.80445 155.0575,31.50114 50.2943,14.62995 93.8578,31.69877 129.5547,47.77187 -4e-4,-2.4e-4 -9e-4,-4.8e-4 0,-7.2e-4 z"
         style="fill:#ff7d00;fill-opacity:1;stroke:none;stroke-width:13.3333;stroke-linecap:butt;stroke-linejoin:miter;stroke-miterlimit:4;stroke-dasharray:none;stroke-opacity:1" />
    </g>
  </g>
</svg>
