<?xml version="1.0" encoding="UTF-8" standalone="no"?>
<!-- Generator: Adobe Illustrator 12.0.1, SVG Export Plug-In . SVG Version: 6.00 Build 51448)  -->

<svg
   xmlns:dc="http://purl.org/dc/elements/1.1/"
   xmlns:cc="http://creativecommons.org/ns#"
   xmlns:rdf="http://www.w3.org/1999/02/22-rdf-syntax-ns#"
   xmlns:svg="http://www.w3.org/2000/svg"
   xmlns="http://www.w3.org/2000/svg"
   xmlns:xlink="http://www.w3.org/1999/xlink"
   xmlns:sodipodi="http://sodipodi.sourceforge.net/DTD/sodipodi-0.dtd"
   xmlns:inkscape="http://www.inkscape.org/namespaces/inkscape"
   version="1.1"
   id="Layer_4"
   width="487.4"
   height="487.4"
   viewBox="0 0 487.4 487.4"
   style="overflow:visible;enable-background:new 0 0 487.4 487.4;"
   xml:space="preserve"
   sodipodi:docname="reference.svg"
   inkscape:version="0.92.3 (2405546, 2018-03-11)"><metadata
   id="metadata455"><rdf:RDF><cc:Work
       rdf:about=""><dc:format>image/svg+xml</dc:format><dc:type
         rdf:resource="http://purl.org/dc/dcmitype/StillImage" /><dc:title></dc:title></cc:Work></rdf:RDF></metadata><defs
   id="defs453"><radialGradient
     inkscape:collect="always"
     xlink:href="#XMLID_14_"
     id="radialGradient1262"
     gradientUnits="userSpaceOnUse"
     cx="292.0811"
     cy="268.2959"
     r="142.2392" /><radialGradient
     inkscape:collect="always"
     xlink:href="#XMLID_14_"
     id="radialGradient1264"
     gradientUnits="userSpaceOnUse"
     cx="292.0811"
     cy="268.2959"
     r="142.2392" /><radialGradient
     inkscape:collect="always"
     xlink:href="#XMLID_17_"
     id="radialGradient1266"
     gradientUnits="userSpaceOnUse"
     cx="286.748"
     cy="177.6294"
     r="204.8312" /><radialGradient
     inkscape:collect="always"
     xlink:href="#XMLID_17_"
     id="radialGradient1268"
     gradientUnits="userSpaceOnUse"
     cx="286.748"
     cy="177.6294"
     r="204.8312" /><radialGradient
     inkscape:collect="always"
     xlink:href="#XMLID_17_"
     id="radialGradient1270"
     gradientUnits="userSpaceOnUse"
     cx="286.748"
     cy="177.6294"
     r="204.8312" /><radialGradient
     inkscape:collect="always"
     xlink:href="#XMLID_14_"
     id="radialGradient1272"
     gradientUnits="userSpaceOnUse"
     cx="292.0811"
     cy="268.2959"
     r="142.2392" /><radialGradient
     inkscape:collect="always"
     xlink:href="#XMLID_17_"
     id="radialGradient1274"
     gradientUnits="userSpaceOnUse"
     cx="286.748"
     cy="177.6294"
     r="204.8312" /><radialGradient
     inkscape:collect="always"
     xlink:href="#XMLID_14_"
     id="radialGradient1276"
     gradientUnits="userSpaceOnUse"
     cx="292.0811"
     cy="268.2959"
     r="142.2392" /></defs><sodipodi:namedview
   pagecolor="#ffffff"
   bordercolor="#666666"
   borderopacity="1"
   objecttolerance="10"
   gridtolerance="10"
   guidetolerance="10"
   inkscape:pageopacity="0"
   inkscape:pageshadow="2"
   inkscape:window-width="1780"
   inkscape:window-height="1046"
   id="namedview451"
   showgrid="false"
   inkscape:zoom="0.48420189"
   inkscape:cx="30.978813"
   inkscape:cy="243.7"
   inkscape:window-x="-11"
   inkscape:window-y="-11"
   inkscape:window-maximized="1"
   inkscape:current-layer="Layer_4" />
<g
   id="g446"
   transform="matrix(1.2161773,0,0,1.1978372,-73.891956,-31.585289)">
	<g
   id="g35">
		
			<radialGradient
   id="XMLID_13_"
   cx="244.3027"
   cy="214.1787"
   r="149.9758"
   gradientTransform="matrix(1.6296,-0.3743,0,1,-174.1228,92.9134)"
   gradientUnits="userSpaceOnUse">
			<stop
   offset="0"
   style="stop-color:#F4FFF3"
   id="stop2" />
			<stop
   offset="1"
   style="stop-color:#5EBF53"
   id="stop4" />
		</radialGradient>
		<polygon
   style="opacity:0.7;fill:url(#XMLID_13_)"
   points="333.7,332.1 241.5,386.8 241.5,245 333.7,190.3 "
   id="polygon7" />
		<g
   style="opacity:0.7"
   id="g33">
			<line
   style="fill:none;stroke:#000000;stroke-width:0.25"
   x1="241.5"
   y1="363.10001"
   x2="333.70001"
   y2="308.39999"
   id="line9" />
			<line
   style="fill:none;stroke:#000000;stroke-width:0.25"
   x1="241.5"
   y1="339.60001"
   x2="333.70001"
   y2="284.89999"
   id="line11" />
			<line
   style="fill:none;stroke:#000000;stroke-width:0.25"
   x1="241.5"
   y1="315.89999"
   x2="333.70001"
   y2="261.20001"
   id="line13" />
			<line
   style="fill:none;stroke:#000000;stroke-width:0.25"
   x1="241.5"
   y1="292.20001"
   x2="333.70001"
   y2="237.5"
   id="line15" />
			<line
   style="fill:none;stroke:#000000;stroke-width:0.25"
   x1="241.5"
   y1="268.70001"
   x2="333.70001"
   y2="214"
   id="line17" />
			<line
   style="fill:none;stroke:#000000;stroke-width:0.25"
   x1="241.5"
   y1="386.79999"
   x2="333.70001"
   y2="332.10001"
   id="line19" />
			<line
   style="fill:none;stroke:#000000;stroke-width:0.25"
   x1="318.39999"
   y1="199.5"
   x2="318.39999"
   y2="341.20001"
   id="line21" />
			<line
   style="fill:none;stroke:#000000;stroke-width:0.25"
   x1="303"
   y1="208.60001"
   x2="303"
   y2="350.29999"
   id="line23" />
			<line
   style="fill:none;stroke:#000000;stroke-width:0.25"
   x1="287.60001"
   y1="217.7"
   x2="287.60001"
   y2="359.39999"
   id="line25" />
			<line
   style="fill:none;stroke:#000000;stroke-width:0.25"
   x1="272.20001"
   y1="226.8"
   x2="272.20001"
   y2="368.5"
   id="line27" />
			<line
   style="fill:none;stroke:#000000;stroke-width:0.25"
   x1="256.79999"
   y1="235.89999"
   x2="256.79999"
   y2="377.70001"
   id="line29" />
			<line
   style="fill:none;stroke:#000000;stroke-width:0.25"
   x1="333.70001"
   y1="190.3"
   x2="333.70001"
   y2="332.10001"
   id="line31" />
		</g>
	</g>
	<g
   id="g70">
		<radialGradient
   id="XMLID_14_"
   cx="292.08109"
   cy="268.2959"
   r="142.2392"
   gradientUnits="userSpaceOnUse">
			<stop
   offset="0"
   style="stop-color:#FFEEDE"
   id="stop37" />
			<stop
   offset="1"
   style="stop-color:#FF8E52"
   id="stop39" />
		</radialGradient>
		<polygon
   style="opacity:0.7;fill:url(#radialGradient1262)"
   points="241.5,245 99.7,245 192,190.3 333.7,190.3 "
   id="polygon42" />
		<g
   style="opacity:0.7"
   id="g68">
			<line
   style="fill:none;stroke:#000000;stroke-width:0.25"
   x1="192"
   y1="190.3"
   x2="333.70001"
   y2="190.3"
   id="line44" />
			<line
   style="fill:none;stroke:#000000;stroke-width:0.25"
   x1="115.2"
   y1="235.89999"
   x2="256.89999"
   y2="235.89999"
   id="line46" />
			<line
   style="fill:none;stroke:#000000;stroke-width:0.25"
   x1="130.5"
   y1="226.8"
   x2="272.20001"
   y2="226.8"
   id="line48" />
			<line
   style="fill:none;stroke:#000000;stroke-width:0.25"
   x1="145.89999"
   y1="217.7"
   x2="287.60001"
   y2="217.7"
   id="line50" />
			<line
   style="fill:none;stroke:#000000;stroke-width:0.25"
   x1="161.3"
   y1="208.5"
   x2="303"
   y2="208.5"
   id="line52" />
			<line
   style="fill:none;stroke:#000000;stroke-width:0.25"
   x1="176.60001"
   y1="199.39999"
   x2="318.29999"
   y2="199.39999"
   id="line54" />
			<line
   style="fill:none;stroke:#000000;stroke-width:0.25"
   x1="192"
   y1="190.3"
   x2="99.699997"
   y2="245"
   id="line56" />
			<line
   style="fill:none;stroke:#000000;stroke-width:0.25"
   x1="310.10001"
   y1="190.3"
   x2="217.89999"
   y2="245"
   id="line58" />
			<line
   style="fill:none;stroke:#000000;stroke-width:0.25"
   x1="286.5"
   y1="190.3"
   x2="194.2"
   y2="245"
   id="line60" />
			<line
   style="fill:none;stroke:#000000;stroke-width:0.25"
   x1="262.89999"
   y1="190.3"
   x2="170.60001"
   y2="245"
   id="line62" />
			<line
   style="fill:none;stroke:#000000;stroke-width:0.25"
   x1="239.3"
   y1="190.3"
   x2="147"
   y2="245"
   id="line64" />
			<line
   style="fill:none;stroke:#000000;stroke-width:0.25"
   x1="215.60001"
   y1="190.3"
   x2="123.3"
   y2="245"
   id="line66" />
		</g>
	</g>
	<g
   id="g105">
		
			<radialGradient
   id="XMLID_15_"
   cx="244.3027"
   cy="214.1777"
   r="149.9765"
   gradientTransform="matrix(1.6296,-0.3743,0,1,-174.1228,92.9134)"
   gradientUnits="userSpaceOnUse">
			<stop
   offset="0"
   style="stop-color:#F4FFF3"
   id="stop72" />
			<stop
   offset="1"
   style="stop-color:#5EBF53"
   id="stop74" />
		</radialGradient>
		<polygon
   style="opacity:0.7;fill:url(#XMLID_15_)"
   points="333.7,190.3 241.5,245 241.5,103.3 333.7,48.6 "
   id="polygon77" />
		<g
   style="opacity:0.7"
   id="g103">
			<line
   style="fill:none;stroke:#000000;stroke-width:0.25"
   x1="241.5"
   y1="103.3"
   x2="333.70001"
   y2="48.599998"
   id="line79" />
			<line
   style="fill:none;stroke:#000000;stroke-width:0.25"
   x1="241.5"
   y1="221.39999"
   x2="333.70001"
   y2="166.7"
   id="line81" />
			<line
   style="fill:none;stroke:#000000;stroke-width:0.25"
   x1="241.5"
   y1="197.8"
   x2="333.70001"
   y2="143.2"
   id="line83" />
			<line
   style="fill:none;stroke:#000000;stroke-width:0.25"
   x1="241.5"
   y1="174.2"
   x2="333.70001"
   y2="119.5"
   id="line85" />
			<line
   style="fill:none;stroke:#000000;stroke-width:0.25"
   x1="241.5"
   y1="150.5"
   x2="333.70001"
   y2="95.800003"
   id="line87" />
			<line
   style="fill:none;stroke:#000000;stroke-width:0.25"
   x1="241.5"
   y1="127"
   x2="333.70001"
   y2="72.300003"
   id="line89" />
			<line
   style="fill:none;stroke:#000000;stroke-width:0.25"
   x1="318.39999"
   y1="57.700001"
   x2="318.39999"
   y2="199.5"
   id="line91" />
			<line
   style="fill:none;stroke:#000000;stroke-width:0.25"
   x1="303"
   y1="66.900002"
   x2="303"
   y2="208.60001"
   id="line93" />
			<line
   style="fill:none;stroke:#000000;stroke-width:0.25"
   x1="287.60001"
   y1="76"
   x2="287.60001"
   y2="217.7"
   id="line95" />
			<line
   style="fill:none;stroke:#000000;stroke-width:0.25"
   x1="272.20001"
   y1="85.099998"
   x2="272.20001"
   y2="226.8"
   id="line97" />
			<line
   style="fill:none;stroke:#000000;stroke-width:0.25"
   x1="256.79999"
   y1="94.199997"
   x2="256.79999"
   y2="235.89999"
   id="line99" />
			<line
   style="fill:none;stroke:#000000;stroke-width:0.25"
   x1="333.70001"
   y1="48.599998"
   x2="333.70001"
   y2="190.3"
   id="line101" />
		</g>
	</g>
	<g
   id="g135">
		<polygon
   style="opacity:0.7;fill:url(#radialGradient1264)"
   points="383.2,245 241.5,245 333.7,190.3 475.5,190.3 "
   id="polygon107" />
		<g
   style="opacity:0.7"
   id="g133">
			<line
   style="fill:none;stroke:#000000;stroke-width:0.25"
   x1="333.70001"
   y1="190.3"
   x2="475.5"
   y2="190.3"
   id="line109" />
			<line
   style="fill:none;stroke:#000000;stroke-width:0.25"
   x1="256.89999"
   y1="235.89999"
   x2="398.60001"
   y2="235.89999"
   id="line111" />
			<line
   style="fill:none;stroke:#000000;stroke-width:0.25"
   x1="272.20001"
   y1="226.8"
   x2="413.89999"
   y2="226.8"
   id="line113" />
			<line
   style="fill:none;stroke:#000000;stroke-width:0.25"
   x1="287.60001"
   y1="217.7"
   x2="429.29999"
   y2="217.7"
   id="line115" />
			<line
   style="fill:none;stroke:#000000;stroke-width:0.25"
   x1="303"
   y1="208.5"
   x2="444.70001"
   y2="208.5"
   id="line117" />
			<line
   style="fill:none;stroke:#000000;stroke-width:0.25"
   x1="318.29999"
   y1="199.39999"
   x2="460"
   y2="199.39999"
   id="line119" />
			<line
   style="fill:none;stroke:#000000;stroke-width:0.25"
   x1="451.89999"
   y1="190.3"
   x2="359.60001"
   y2="245"
   id="line121" />
			<line
   style="fill:none;stroke:#000000;stroke-width:0.25"
   x1="428.20001"
   y1="190.3"
   x2="335.89999"
   y2="245"
   id="line123" />
			<line
   style="fill:none;stroke:#000000;stroke-width:0.25"
   x1="404.60001"
   y1="190.3"
   x2="312.29999"
   y2="245"
   id="line125" />
			<line
   style="fill:none;stroke:#000000;stroke-width:0.25"
   x1="381"
   y1="190.3"
   x2="288.70001"
   y2="245"
   id="line127" />
			<line
   style="fill:none;stroke:#000000;stroke-width:0.25"
   x1="357.29999"
   y1="190.3"
   x2="265.10001"
   y2="245"
   id="line129" />
			<line
   style="fill:none;stroke:#000000;stroke-width:0.25"
   x1="383.20001"
   y1="245"
   x2="475.5"
   y2="190.3"
   id="line131" />
		</g>
	</g>
	<g
   id="g143">
		<g
   id="g141">
			<line
   style="fill:none;stroke:#000000;stroke-width:4"
   x1="241.5"
   y1="245"
   x2="353.10001"
   y2="178.8"
   id="line137" />
			<path
   d="m 356.7,173.8 c -4,1 -6.8,1.4 -10.2,1.9 l 6.2,10.4 c 0.7,-1 3.7,-5 6.5,-8 3,-3.3 5.9,-6 7.8,-7.5 -2.3,0.9 -6,2.1 -10.3,3.2 z"
   id="path139"
   inkscape:connector-curvature="0" />
		</g>
	</g>
	<g
   id="g178">
		<radialGradient
   id="XMLID_17_"
   cx="286.74799"
   cy="177.62939"
   r="204.83121"
   gradientUnits="userSpaceOnUse">
			<stop
   offset="0"
   style="stop-color:#DEEEFF"
   id="stop145" />
			<stop
   offset="1"
   style="stop-color:#3374FF"
   id="stop147" />
		</radialGradient>
		<rect
   x="241.5"
   y="103.3"
   style="opacity:0.7;fill:url(#radialGradient1266)"
   width="141.7"
   height="141.7"
   id="rect150" />
		<g
   style="opacity:0.7"
   id="g176">
			<line
   style="fill:none;stroke:#000000;stroke-width:0.25"
   x1="241.5"
   y1="103.3"
   x2="383.20001"
   y2="103.3"
   id="line152" />
			<line
   style="fill:none;stroke:#000000;stroke-width:0.25"
   x1="241.5"
   y1="221.39999"
   x2="383.20001"
   y2="221.39999"
   id="line154" />
			<line
   style="fill:none;stroke:#000000;stroke-width:0.25"
   x1="241.5"
   y1="197.8"
   x2="383.20001"
   y2="197.8"
   id="line156" />
			<line
   style="fill:none;stroke:#000000;stroke-width:0.25"
   x1="241.5"
   y1="174.2"
   x2="383.20001"
   y2="174.2"
   id="line158" />
			<line
   style="fill:none;stroke:#000000;stroke-width:0.25"
   x1="241.5"
   y1="150.5"
   x2="383.20001"
   y2="150.5"
   id="line160" />
			<line
   style="fill:none;stroke:#000000;stroke-width:0.25"
   x1="241.5"
   y1="127"
   x2="383.20001"
   y2="127"
   id="line162" />
			<line
   style="fill:none;stroke:#000000;stroke-width:0.25"
   x1="359.60001"
   y1="103.3"
   x2="359.60001"
   y2="245"
   id="line164" />
			<line
   style="fill:none;stroke:#000000;stroke-width:0.25"
   x1="335.89999"
   y1="103.3"
   x2="335.89999"
   y2="245"
   id="line166" />
			<line
   style="fill:none;stroke:#000000;stroke-width:0.25"
   x1="312.29999"
   y1="103.3"
   x2="312.29999"
   y2="245"
   id="line168" />
			<line
   style="fill:none;stroke:#000000;stroke-width:0.25"
   x1="288.70001"
   y1="103.3"
   x2="288.70001"
   y2="245"
   id="line170" />
			<line
   style="fill:none;stroke:#000000;stroke-width:0.25"
   x1="265.10001"
   y1="103.3"
   x2="265.10001"
   y2="245"
   id="line172" />
			<line
   style="fill:none;stroke:#000000;stroke-width:0.25"
   x1="383.20001"
   y1="103.3"
   x2="383.20001"
   y2="245"
   id="line174" />
		</g>
	</g>
	<g
   id="g208">
		<rect
   x="99.699997"
   y="103.3"
   style="opacity:0.7;fill:url(#radialGradient1268)"
   width="141.7"
   height="141.7"
   id="rect180" />
		<g
   style="opacity:0.7"
   id="g206">
			<line
   style="fill:none;stroke:#000000;stroke-width:0.25"
   x1="99.699997"
   y1="103.3"
   x2="241.5"
   y2="103.3"
   id="line182" />
			<line
   style="fill:none;stroke:#000000;stroke-width:0.25"
   x1="99.699997"
   y1="221.39999"
   x2="241.5"
   y2="221.39999"
   id="line184" />
			<line
   style="fill:none;stroke:#000000;stroke-width:0.25"
   x1="99.699997"
   y1="197.8"
   x2="241.5"
   y2="197.8"
   id="line186" />
			<line
   style="fill:none;stroke:#000000;stroke-width:0.25"
   x1="99.699997"
   y1="174.2"
   x2="241.5"
   y2="174.2"
   id="line188" />
			<line
   style="fill:none;stroke:#000000;stroke-width:0.25"
   x1="99.699997"
   y1="150.5"
   x2="241.5"
   y2="150.5"
   id="line190" />
			<line
   style="fill:none;stroke:#000000;stroke-width:0.25"
   x1="99.699997"
   y1="127"
   x2="241.5"
   y2="127"
   id="line192" />
			<line
   style="fill:none;stroke:#000000;stroke-width:0.25"
   x1="99.699997"
   y1="103.3"
   x2="99.699997"
   y2="245"
   id="line194" />
			<line
   style="fill:none;stroke:#000000;stroke-width:0.25"
   x1="217.89999"
   y1="103.3"
   x2="217.89999"
   y2="245"
   id="line196" />
			<line
   style="fill:none;stroke:#000000;stroke-width:0.25"
   x1="194.2"
   y1="103.3"
   x2="194.2"
   y2="245"
   id="line198" />
			<line
   style="fill:none;stroke:#000000;stroke-width:0.25"
   x1="170.60001"
   y1="103.3"
   x2="170.60001"
   y2="245"
   id="line200" />
			<line
   style="fill:none;stroke:#000000;stroke-width:0.25"
   x1="147"
   y1="103.3"
   x2="147"
   y2="245"
   id="line202" />
			<line
   style="fill:none;stroke:#000000;stroke-width:0.25"
   x1="123.3"
   y1="103.3"
   x2="123.3"
   y2="245"
   id="line204" />
		</g>
	</g>
	<g
   id="g238">
		<rect
   x="99.699997"
   y="245"
   style="opacity:0.7;fill:url(#radialGradient1270)"
   width="141.7"
   height="141.7"
   id="rect210" />
		<g
   style="opacity:0.7"
   id="g236">
			<line
   style="fill:none;stroke:#000000;stroke-width:0.25"
   x1="99.699997"
   y1="363.10001"
   x2="241.5"
   y2="363.10001"
   id="line212" />
			<line
   style="fill:none;stroke:#000000;stroke-width:0.25"
   x1="99.699997"
   y1="339.60001"
   x2="241.5"
   y2="339.60001"
   id="line214" />
			<line
   style="fill:none;stroke:#000000;stroke-width:0.25"
   x1="99.699997"
   y1="315.89999"
   x2="241.5"
   y2="315.89999"
   id="line216" />
			<line
   style="fill:none;stroke:#000000;stroke-width:0.25"
   x1="99.699997"
   y1="292.20001"
   x2="241.5"
   y2="292.20001"
   id="line218" />
			<line
   style="fill:none;stroke:#000000;stroke-width:0.25"
   x1="99.699997"
   y1="268.70001"
   x2="241.5"
   y2="268.70001"
   id="line220" />
			<line
   style="fill:none;stroke:#000000;stroke-width:0.25"
   x1="99.699997"
   y1="386.79999"
   x2="241.5"
   y2="386.79999"
   id="line222" />
			<line
   style="fill:none;stroke:#000000;stroke-width:0.25"
   x1="99.699997"
   y1="245"
   x2="99.699997"
   y2="386.79999"
   id="line224" />
			<line
   style="fill:none;stroke:#000000;stroke-width:0.25"
   x1="217.89999"
   y1="245"
   x2="217.89999"
   y2="386.79999"
   id="line226" />
			<line
   style="fill:none;stroke:#000000;stroke-width:0.25"
   x1="194.2"
   y1="245"
   x2="194.2"
   y2="386.79999"
   id="line228" />
			<line
   style="fill:none;stroke:#000000;stroke-width:0.25"
   x1="170.60001"
   y1="245"
   x2="170.60001"
   y2="386.79999"
   id="line230" />
			<line
   style="fill:none;stroke:#000000;stroke-width:0.25"
   x1="147"
   y1="245"
   x2="147"
   y2="386.79999"
   id="line232" />
			<line
   style="fill:none;stroke:#000000;stroke-width:0.25"
   x1="123.3"
   y1="245"
   x2="123.3"
   y2="386.79999"
   id="line234" />
		</g>
	</g>
	<g
   id="g268">
		<polygon
   style="opacity:0.7;fill:url(#radialGradient1272)"
   points="149.2,299.8 7.5,299.8 99.7,245 241.5,245 "
   id="polygon240" />
		<g
   style="opacity:0.7"
   id="g266">
			<line
   style="fill:none;stroke:#000000;stroke-width:0.25"
   x1="22.9"
   y1="290.60001"
   x2="164.60001"
   y2="290.60001"
   id="line242" />
			<line
   style="fill:none;stroke:#000000;stroke-width:0.25"
   x1="38.200001"
   y1="281.5"
   x2="180"
   y2="281.5"
   id="line244" />
			<line
   style="fill:none;stroke:#000000;stroke-width:0.25"
   x1="53.599998"
   y1="272.39999"
   x2="195.39999"
   y2="272.39999"
   id="line246" />
			<line
   style="fill:none;stroke:#000000;stroke-width:0.25"
   x1="69"
   y1="263.29999"
   x2="210.8"
   y2="263.29999"
   id="line248" />
			<line
   style="fill:none;stroke:#000000;stroke-width:0.25"
   x1="84.300003"
   y1="254.2"
   x2="226.10001"
   y2="254.2"
   id="line250" />
			<line
   style="fill:none;stroke:#000000;stroke-width:0.25"
   x1="7.5"
   y1="299.79999"
   x2="149.2"
   y2="299.79999"
   id="line252" />
			<line
   style="fill:none;stroke:#000000;stroke-width:0.25"
   x1="99.699997"
   y1="245"
   x2="7.5"
   y2="299.79999"
   id="line254" />
			<line
   style="fill:none;stroke:#000000;stroke-width:0.25"
   x1="217.89999"
   y1="245"
   x2="125.6"
   y2="299.79999"
   id="line256" />
			<line
   style="fill:none;stroke:#000000;stroke-width:0.25"
   x1="194.2"
   y1="245"
   x2="102"
   y2="299.79999"
   id="line258" />
			<line
   style="fill:none;stroke:#000000;stroke-width:0.25"
   x1="170.60001"
   y1="245"
   x2="78.400002"
   y2="299.79999"
   id="line260" />
			<line
   style="fill:none;stroke:#000000;stroke-width:0.25"
   x1="147"
   y1="245"
   x2="54.799999"
   y2="299.79999"
   id="line262" />
			<line
   style="fill:none;stroke:#000000;stroke-width:0.25"
   x1="123.3"
   y1="245"
   x2="31.1"
   y2="299.79999"
   id="line264" />
		</g>
	</g>
	<g
   id="g298">
		<rect
   x="241.5"
   y="245"
   style="opacity:0.7;fill:url(#radialGradient1274)"
   width="141.7"
   height="141.7"
   id="rect270" />
		<g
   style="opacity:0.7"
   id="g296">
			<line
   style="fill:none;stroke:#000000;stroke-width:0.25"
   x1="241.5"
   y1="363.10001"
   x2="383.20001"
   y2="363.10001"
   id="line272" />
			<line
   style="fill:none;stroke:#000000;stroke-width:0.25"
   x1="241.5"
   y1="339.60001"
   x2="383.20001"
   y2="339.60001"
   id="line274" />
			<line
   style="fill:none;stroke:#000000;stroke-width:0.25"
   x1="241.5"
   y1="315.89999"
   x2="383.20001"
   y2="315.89999"
   id="line276" />
			<line
   style="fill:none;stroke:#000000;stroke-width:0.25"
   x1="241.5"
   y1="292.20001"
   x2="383.20001"
   y2="292.20001"
   id="line278" />
			<line
   style="fill:none;stroke:#000000;stroke-width:0.25"
   x1="241.5"
   y1="268.70001"
   x2="383.20001"
   y2="268.70001"
   id="line280" />
			<line
   style="fill:none;stroke:#000000;stroke-width:0.25"
   x1="241.5"
   y1="386.79999"
   x2="383.20001"
   y2="386.79999"
   id="line282" />
			<line
   style="fill:none;stroke:#000000;stroke-width:0.25"
   x1="359.60001"
   y1="245"
   x2="359.60001"
   y2="386.79999"
   id="line284" />
			<line
   style="fill:none;stroke:#000000;stroke-width:0.25"
   x1="335.89999"
   y1="245"
   x2="335.89999"
   y2="386.79999"
   id="line286" />
			<line
   style="fill:none;stroke:#000000;stroke-width:0.25"
   x1="312.29999"
   y1="245"
   x2="312.29999"
   y2="386.79999"
   id="line288" />
			<line
   style="fill:none;stroke:#000000;stroke-width:0.25"
   x1="288.70001"
   y1="245"
   x2="288.70001"
   y2="386.79999"
   id="line290" />
			<line
   style="fill:none;stroke:#000000;stroke-width:0.25"
   x1="265.10001"
   y1="245"
   x2="265.10001"
   y2="386.79999"
   id="line292" />
			<line
   style="fill:none;stroke:#000000;stroke-width:0.25"
   x1="383.20001"
   y1="245"
   x2="383.20001"
   y2="386.79999"
   id="line294" />
		</g>
	</g>
	<g
   id="g306">
		<g
   id="g304">
			<line
   style="fill:none;stroke:#000000;stroke-width:4"
   x1="241.5"
   y1="245"
   x2="77.199997"
   y2="245"
   id="line300" />
			<path
   d="m 71.5,247.5 c 4,1.2 6.5,2.3 9.7,3.6 V 239 c -1.1,0.5 -5.8,2.4 -9.7,3.6 -4.2,1.3 -8.1,2.2 -10.6,2.5 2.5,0.2 6.4,1.1 10.6,2.4 z"
   id="path302"
   inkscape:connector-curvature="0" />
		</g>
	</g>
	<g
   id="g341">
		
			<radialGradient
   id="XMLID_22_"
   cx="244.3027"
   cy="214.1768"
   r="149.9765"
   gradientTransform="matrix(1.6296,-0.3743,0,1,-174.1228,92.9134)"
   gradientUnits="userSpaceOnUse">
			<stop
   offset="0"
   style="stop-color:#F4FFF3"
   id="stop308" />
			<stop
   offset="1"
   style="stop-color:#5EBF53"
   id="stop310" />
		</radialGradient>
		<polygon
   style="opacity:0.7;fill:url(#XMLID_22_)"
   points="241.5,245 149.2,299.7 149.2,158 241.5,103.3 "
   id="polygon313" />
		<g
   style="opacity:0.7"
   id="g339">
			<line
   style="fill:none;stroke:#000000;stroke-width:0.25"
   x1="149.2"
   y1="158"
   x2="241.5"
   y2="103.3"
   id="line315" />
			<line
   style="fill:none;stroke:#000000;stroke-width:0.25"
   x1="149.2"
   y1="276"
   x2="241.5"
   y2="221.39999"
   id="line317" />
			<line
   style="fill:none;stroke:#000000;stroke-width:0.25"
   x1="149.2"
   y1="252.5"
   x2="241.5"
   y2="197.8"
   id="line319" />
			<line
   style="fill:none;stroke:#000000;stroke-width:0.25"
   x1="149.2"
   y1="228.8"
   x2="241.5"
   y2="174.2"
   id="line321" />
			<line
   style="fill:none;stroke:#000000;stroke-width:0.25"
   x1="149.2"
   y1="205.2"
   x2="241.5"
   y2="150.5"
   id="line323" />
			<line
   style="fill:none;stroke:#000000;stroke-width:0.25"
   x1="149.2"
   y1="181.60001"
   x2="241.5"
   y2="127"
   id="line325" />
			<line
   style="fill:none;stroke:#000000;stroke-width:0.25"
   x1="149.2"
   y1="158"
   x2="149.2"
   y2="299.70001"
   id="line327" />
			<line
   style="fill:none;stroke:#000000;stroke-width:0.25"
   x1="226.10001"
   y1="112.4"
   x2="226.10001"
   y2="254.10001"
   id="line329" />
			<line
   style="fill:none;stroke:#000000;stroke-width:0.25"
   x1="210.7"
   y1="121.5"
   x2="210.7"
   y2="263.29999"
   id="line331" />
			<line
   style="fill:none;stroke:#000000;stroke-width:0.25"
   x1="195.39999"
   y1="130.60001"
   x2="195.39999"
   y2="272.39999"
   id="line333" />
			<line
   style="fill:none;stroke:#000000;stroke-width:0.25"
   x1="180"
   y1="139.7"
   x2="180"
   y2="281.5"
   id="line335" />
			<line
   style="fill:none;stroke:#000000;stroke-width:0.25"
   x1="164.60001"
   y1="148.89999"
   x2="164.60001"
   y2="290.60001"
   id="line337" />
		</g>
	</g>
	<g
   id="g376">
		
			<radialGradient
   id="XMLID_23_"
   cx="244.3027"
   cy="214.1777"
   r="149.9758"
   gradientTransform="matrix(1.6296,-0.3743,0,1,-174.1228,92.9134)"
   gradientUnits="userSpaceOnUse">
			<stop
   offset="0"
   style="stop-color:#F4FFF3"
   id="stop343" />
			<stop
   offset="1"
   style="stop-color:#5EBF53"
   id="stop345" />
		</radialGradient>
		<polygon
   style="opacity:0.7;fill:url(#XMLID_23_)"
   points="241.5,386.8 149.2,441.4 149.2,299.7 241.5,245 "
   id="polygon348" />
		<g
   style="opacity:0.7"
   id="g374">
			<line
   style="fill:none;stroke:#000000;stroke-width:0.25"
   x1="149.2"
   y1="417.79999"
   x2="241.5"
   y2="363.10001"
   id="line350" />
			<line
   style="fill:none;stroke:#000000;stroke-width:0.25"
   x1="149.2"
   y1="394.20001"
   x2="241.5"
   y2="339.60001"
   id="line352" />
			<line
   style="fill:none;stroke:#000000;stroke-width:0.25"
   x1="149.2"
   y1="370.60001"
   x2="241.5"
   y2="315.89999"
   id="line354" />
			<line
   style="fill:none;stroke:#000000;stroke-width:0.25"
   x1="149.2"
   y1="346.89999"
   x2="241.5"
   y2="292.20001"
   id="line356" />
			<line
   style="fill:none;stroke:#000000;stroke-width:0.25"
   x1="149.2"
   y1="323.39999"
   x2="241.5"
   y2="268.70001"
   id="line358" />
			<line
   style="fill:none;stroke:#000000;stroke-width:0.25"
   x1="149.2"
   y1="441.39999"
   x2="241.5"
   y2="386.79999"
   id="line360" />
			<line
   style="fill:none;stroke:#000000;stroke-width:0.25"
   x1="149.2"
   y1="299.70001"
   x2="149.2"
   y2="441.39999"
   id="line362" />
			<line
   style="fill:none;stroke:#000000;stroke-width:0.25"
   x1="226.10001"
   y1="254.10001"
   x2="226.10001"
   y2="395.89999"
   id="line364" />
			<line
   style="fill:none;stroke:#000000;stroke-width:0.25"
   x1="210.7"
   y1="263.29999"
   x2="210.7"
   y2="405"
   id="line366" />
			<line
   style="fill:none;stroke:#000000;stroke-width:0.25"
   x1="195.39999"
   y1="272.39999"
   x2="195.39999"
   y2="414.10001"
   id="line368" />
			<line
   style="fill:none;stroke:#000000;stroke-width:0.25"
   x1="180"
   y1="281.5"
   x2="180"
   y2="423.20001"
   id="line370" />
			<line
   style="fill:none;stroke:#000000;stroke-width:0.25"
   x1="164.60001"
   y1="290.60001"
   x2="164.60001"
   y2="432.29999"
   id="line372" />
		</g>
	</g>
	<g
   id="g384">
		<g
   id="g382">
			<line
   style="fill:none;stroke:#000000;stroke-width:4"
   x1="241.5"
   y1="245"
   x2="241.5"
   y2="409.79999"
   id="line378" />
			<path
   d="m 243.9,415.4 c 1.2,-4 2.3,-6.5 3.6,-9.7 h -12.1 c 0.5,1.1 2.4,5.8 3.6,9.7 1.3,4.2 2.2,8.1 2.5,10.6 0.3,-2.5 1.2,-6.3 2.4,-10.6 z"
   id="path380"
   inkscape:connector-curvature="0" />
		</g>
	</g>
	<g
   id="g414">
		<polygon
   style="opacity:0.7;fill:url(#radialGradient1276)"
   points="291,299.8 149.2,299.8 241.5,245 383.2,245 "
   id="polygon386" />
		<g
   style="opacity:0.7"
   id="g412">
			<line
   style="fill:none;stroke:#000000;stroke-width:0.25"
   x1="164.60001"
   y1="290.60001"
   x2="306.39999"
   y2="290.60001"
   id="line388" />
			<line
   style="fill:none;stroke:#000000;stroke-width:0.25"
   x1="180"
   y1="281.5"
   x2="321.70001"
   y2="281.5"
   id="line390" />
			<line
   style="fill:none;stroke:#000000;stroke-width:0.25"
   x1="195.39999"
   y1="272.39999"
   x2="337.10001"
   y2="272.39999"
   id="line392" />
			<line
   style="fill:none;stroke:#000000;stroke-width:0.25"
   x1="210.8"
   y1="263.29999"
   x2="352.5"
   y2="263.29999"
   id="line394" />
			<line
   style="fill:none;stroke:#000000;stroke-width:0.25"
   x1="226.10001"
   y1="254.2"
   x2="367.79999"
   y2="254.2"
   id="line396" />
			<line
   style="fill:none;stroke:#000000;stroke-width:0.25"
   x1="149.2"
   y1="299.79999"
   x2="291"
   y2="299.79999"
   id="line398" />
			<line
   style="fill:none;stroke:#000000;stroke-width:0.25"
   x1="359.60001"
   y1="245"
   x2="267.39999"
   y2="299.79999"
   id="line400" />
			<line
   style="fill:none;stroke:#000000;stroke-width:0.25"
   x1="335.89999"
   y1="245"
   x2="243.7"
   y2="299.79999"
   id="line402" />
			<line
   style="fill:none;stroke:#000000;stroke-width:0.25"
   x1="312.29999"
   y1="245"
   x2="220.10001"
   y2="299.79999"
   id="line404" />
			<line
   style="fill:none;stroke:#000000;stroke-width:0.25"
   x1="288.70001"
   y1="245"
   x2="196.5"
   y2="299.79999"
   id="line406" />
			<line
   style="fill:none;stroke:#000000;stroke-width:0.25"
   x1="265.10001"
   y1="245"
   x2="172.8"
   y2="299.79999"
   id="line408" />
			<line
   style="fill:none;stroke:#000000;stroke-width:0.25"
   x1="291"
   y1="299.79999"
   x2="383.20001"
   y2="245"
   id="line410" />
		</g>
	</g>
	<g
   id="g422">
		<g
   id="g420">
			<line
   style="fill:none;stroke:#000000;stroke-width:4"
   x1="241.5"
   y1="245"
   x2="241.5"
   y2="80.300003"
   id="line416" />
			<path
   d="m 239,74.6 c -1.2,4 -2.3,6.5 -3.6,9.7 h 12.1 c -0.5,-1.1 -2.4,-5.8 -3.6,-9.7 -1.3,-4.2 -2.2,-8.1 -2.5,-10.6 -0.2,2.5 -1.1,6.4 -2.4,10.6 z"
   id="path418"
   inkscape:connector-curvature="0" />
		</g>
	</g>
	<g
   id="g430">
		<g
   id="g428">
			<line
   style="fill:none;stroke:#000000;stroke-width:4"
   x1="241.5"
   y1="245"
   x2="405.70001"
   y2="245"
   id="line424" />
			<path
   d="m 411.4,242.6 c -4,-1.2 -6.5,-2.3 -9.7,-3.6 v 12.1 c 1.1,-0.5 5.8,-2.4 9.7,-3.6 4.2,-1.3 8.1,-2.2 10.6,-2.5 -2.5,-0.3 -6.3,-1.1 -10.6,-2.4 z"
   id="path426"
   inkscape:connector-curvature="0" />
		</g>
	</g>
	<g
   id="g438">
		<g
   id="g436">
			<line
   style="fill:none;stroke:#000000;stroke-width:4"
   x1="241.5"
   y1="245"
   x2="129.89999"
   y2="311.20001"
   id="line432" />
			<path
   d="m 126.3,316.2 c 4,-1 6.8,-1.4 10.2,-1.9 l -6.2,-10.4 c -0.7,1 -3.7,5 -6.5,8 -3,3.3 -5.9,6 -7.8,7.5 2.2,-0.9 6,-2.1 10.3,-3.2 z"
   id="path434"
   inkscape:connector-curvature="0" />
		</g>
	</g>
	<text
   transform="translate(437.4248,255.2959)"
   style="font-style:italic;font-size:36px;font-family:'Nimbus Roman No9 L', Times, serif"
   id="text440">x</text>

	<text
   transform="translate(233.4912,50.2939)"
   style="font-style:italic;font-size:36px;font-family:'Nimbus Roman No9 L', Times, serif"
   id="text442">y</text>

	<text
   transform="translate(82.4092,337.2959)"
   style="font-style:italic;font-size:36px;font-family:'Nimbus Roman No9 L', Times, serif"
   id="text444">z</text>

</g>
<rect
   style="fill:none;"
   width="487.4"
   height="487.4"
   id="rect448" />
</svg>