<?xml version="1.0" encoding="UTF-8" standalone="no"?>
<!-- Created with Inkscape (http://www.inkscape.org/) -->

<svg
   xmlns:dc="http://purl.org/dc/elements/1.1/"
   xmlns:cc="http://creativecommons.org/ns#"
   xmlns:rdf="http://www.w3.org/1999/02/22-rdf-syntax-ns#"
   xmlns:svg="http://www.w3.org/2000/svg"
   xmlns="http://www.w3.org/2000/svg"
   xmlns:sodipodi="http://sodipodi.sourceforge.net/DTD/sodipodi-0.dtd"
   xmlns:inkscape="http://www.inkscape.org/namespaces/inkscape"
   width="210mm"
   height="297mm"
   viewBox="0 0 210 297"
   version="1.1"
   id="svg85"
   inkscape:version="0.92.4 (5da689c313, 2019-01-14)"
   sodipodi:docname="RevoluteHingeIcon.svg">
  <defs
     id="defs79" />
  <sodipodi:namedview
     id="base"
     pagecolor="#ffffff"
     bordercolor="#666666"
     borderopacity="1.0"
     inkscape:pageopacity="0.0"
     inkscape:pageshadow="2"
     inkscape:zoom="0.5"
     inkscape:cx="117.51752"
     inkscape:cy="410.12827"
     inkscape:document-units="mm"
     inkscape:current-layer="layer1"
     showgrid="false"
     inkscape:window-width="1920"
     inkscape:window-height="1017"
     inkscape:window-x="-8"
     inkscape:window-y="-8"
     inkscape:window-maximized="1" />
  <metadata
     id="metadata82">
    <rdf:RDF>
      <cc:Work
         rdf:about="">
        <dc:format>image/svg+xml</dc:format>
        <dc:type
           rdf:resource="http://purl.org/dc/dcmitype/StillImage" />
        <dc:title />
      </cc:Work>
    </rdf:RDF>
  </metadata>
  <g
     inkscape:label="Layer 1"
     inkscape:groupmode="layer"
     id="layer1">
    <path
       inkscape:connector-curvature="0"
       d="m 154.00476,278.3305 c 0,9.19906 -6.8413,16.69457 -15.35378,16.69457 v 0 c -8.46024,0 -15.35378,-7.43873 -15.35378,-16.69457 V 49.944285 c 0,-9.199048 6.84131,-16.694568 15.35378,-16.694568 v 0 c 8.46024,0 15.35378,7.438732 15.35378,16.694568 z"
       id="path54"
       style="fill:#ff2600;fill-opacity:1;stroke-width:0.5445627" />
    <path
       inkscape:connector-curvature="0"
       d="M 158.2349,47.218641 V 280.99937 H 290.04759 V 47.218641 Z m 61.31065,21.80515 c 6.47576,0 11.75036,5.735205 11.75036,12.776445 0,7.041239 -5.2746,12.776466 -11.75036,12.776466 -6.47573,0 -11.75033,-5.735227 -11.75033,-12.776466 0,-7.04124 5.22236,-12.776445 11.75033,-12.776445 z M 220.5378,258.5128 c -6.47573,0 -11.75032,-5.73521 -11.75032,-12.77644 0,-7.04127 5.27459,-12.77647 11.75032,-12.77647 6.47574,0 11.75036,5.7352 11.75036,12.77647 0,7.04123 -5.22239,12.77644 -11.75036,12.77644 z m 19.94947,-134.52187 c 0,-7.04124 5.27461,-12.77645 11.75034,-12.77645 6.47573,0 11.75033,5.73521 11.75033,12.77645 0,7.04126 -5.2746,12.77646 -11.75033,12.77646 -6.47573,0 -11.75034,-5.67843 -11.75034,-12.77646 z m 16.86827,77.28335 c -6.47574,0 -11.75034,-5.73521 -11.75034,-12.77644 0,-7.04125 5.2746,-12.77647 11.75034,-12.77647 6.47574,0 11.75033,5.73522 11.75033,12.77647 0,7.04123 -5.27459,12.77644 -11.75033,12.77644 z"
       id="path56"
       style="fill:#0079ff;fill-opacity:1;stroke-width:0.5445627" />
    <path
       inkscape:connector-curvature="0"
       d="m 6.890508,1.73445 v 233.78074 l 108.782042,47.5284 V 49.206086 Z M 44.70049,91.79427 c 5.117927,0 9.243602,5.735206 9.243602,12.77645 0,7.04125 -4.125675,12.77647 -9.243602,12.77647 -5.117924,0 -9.243601,-5.73522 -9.243601,-12.77647 0,-7.041244 4.125677,-12.77645 9.243601,-12.77645 z m 2.558965,81.4286 c -5.117927,0 -9.243601,-5.67843 -9.243601,-12.66288 0,-6.98447 4.125674,-12.6629 9.243601,-12.6629 5.117924,0 9.2436,5.67843 9.2436,12.6629 0,6.98445 -4.125676,12.66288 -9.2436,12.66288 z m 9.2436,-113.114209 c 0,-7.04126 4.700137,-12.776465 10.496971,-12.776465 5.796835,0 10.49697,5.735205 10.49697,12.776465 0,7.04124 -4.700135,12.776445 -10.49697,12.776445 -5.796834,0 -10.496971,-5.735205 -10.496971,-12.776445 z M 80.734867,233.47095 c -5.535716,0 -9.974732,-5.7352 -9.974732,-12.77646 0,-7.04124 4.49124,-12.77645 9.974732,-12.77645 5.535717,0 10.026957,5.73521 10.026957,12.77645 0,7.04126 -4.49124,12.77646 -10.026957,12.77646 z"
       id="path58"
       style="fill:#0079ff;fill-opacity:1;stroke-width:0.5445627" />
  </g>
</svg>
