<?xml version="1.0" encoding="UTF-8" standalone="no"?>
<!-- Created with Inkscape (http://www.inkscape.org/) -->

<svg
   xmlns:dc="http://purl.org/dc/elements/1.1/"
   xmlns:cc="http://creativecommons.org/ns#"
   xmlns:rdf="http://www.w3.org/1999/02/22-rdf-syntax-ns#"
   xmlns:svg="http://www.w3.org/2000/svg"
   xmlns="http://www.w3.org/2000/svg"
   xmlns:sodipodi="http://sodipodi.sourceforge.net/DTD/sodipodi-0.dtd"
   xmlns:inkscape="http://www.inkscape.org/namespaces/inkscape"
   width="210mm"
   height="297mm"
   viewBox="0 0 210 297"
   version="1.1"
   id="svg85"
   sodipodi:docname="RevolutePinIcon.svg"
   inkscape:version="0.92.3 (2405546, 2018-03-11)">
  <defs
     id="defs79" />
  <sodipodi:namedview
     id="base"
     pagecolor="#ffffff"
     bordercolor="#666666"
     borderopacity="1.0"
     inkscape:pageopacity="0.0"
     inkscape:pageshadow="2"
     inkscape:zoom="0.5"
     inkscape:cx="150.55341"
     inkscape:cy="324.47557"
     inkscape:document-units="mm"
     inkscape:current-layer="layer1"
     showgrid="false"
     inkscape:window-width="1780"
     inkscape:window-height="1046"
     inkscape:window-x="-11"
     inkscape:window-y="-11"
     inkscape:window-maximized="1" />
  <metadata
     id="metadata82">
    <rdf:RDF>
      <cc:Work
         rdf:about="">
        <dc:format>image/svg+xml</dc:format>
        <dc:type
           rdf:resource="http://purl.org/dc/dcmitype/StillImage" />
        <dc:title />
      </cc:Work>
    </rdf:RDF>
  </metadata>
  <g
     inkscape:label="Layer 1"
     inkscape:groupmode="layer"
     id="layer1">
    <path
       inkscape:connector-curvature="0"
       d="m 155.10448,276.80325 c 0,9.16585 -6.89245,16.63432 -15.46856,16.63432 v 0 c -8.52348,0 -15.46855,-7.41189 -15.46855,-16.63432 V 49.241154 c 0,-9.165853 6.89245,-16.634326 15.46855,-16.634326 v 0 c 8.52348,0 15.46856,7.41189 15.46856,16.634326 z"
       id="path54"
       style="fill:#ff2600;fill-opacity:1;stroke-width:0.54560721" />
    <path
       inkscape:connector-curvature="0"
       d="M 159.36624,46.525346 V 279.46247 h 87.81885 V 46.525346 Z m 40.84759,21.726467 c 4.31441,0 7.82855,5.714509 7.82855,12.730341 0,7.015831 -3.51414,12.730362 -7.82855,12.730362 -4.31439,0 -7.82854,-5.714531 -7.82854,-12.730362 0,-7.015832 3.47935,-12.730341 7.82854,-12.730341 z m 0.66108,188.805237 c -4.31439,0 -7.82854,-5.7145 -7.82854,-12.73033 0,-7.01586 3.51415,-12.73037 7.82854,-12.73037 4.31439,0 7.82855,5.71451 7.82855,12.73037 0,7.01583 -3.47936,12.73033 -7.82855,12.73033 z M 214.16603,123.0206 c 0,-7.01583 3.51416,-12.73034 7.82855,-12.73034 4.31439,0 7.82853,5.71451 7.82853,12.73034 0,7.01586 -3.51414,12.73037 -7.82853,12.73037 -4.31439,0 -7.82855,-5.65795 -7.82855,-12.73037 z m 11.23832,77.00447 c -4.3144,0 -7.82855,-5.7145 -7.82855,-12.73033 0,-7.01583 3.51415,-12.73036 7.82855,-12.73036 4.31439,0 7.82853,5.71453 7.82853,12.73036 0,7.01583 -3.51414,12.73033 -7.82853,12.73033 z"
       id="path56"
       style="fill:#000000;fill-opacity:1;stroke-width:0.44368851" />
    <path
       inkscape:connector-curvature="0"
       d="M 6.890508,1.2052833 V 234.14243 l 109.595212,47.3569 V 48.50562 Z M 44.983129,90.940125 c 5.156185,0 9.312699,5.714509 9.312699,12.730345 0,7.01584 -4.156514,12.73036 -9.312699,12.73036 -5.156182,0 -9.3127,-5.71452 -9.3127,-12.73036 0,-7.015836 4.156518,-12.730345 9.3127,-12.730345 z m 2.578094,81.134765 c -5.156185,0 -9.3127,-5.65794 -9.3127,-12.61719 0,-6.95927 4.156515,-12.61719 9.3127,-12.61719 5.156182,0 9.312698,5.65792 9.312698,12.61719 0,6.95925 -4.156516,12.61719 -9.312698,12.61719 z M 56.873921,59.368852 c 0,-7.015852 4.735271,-12.730362 10.575438,-12.730362 5.840167,0 10.575437,5.71451 10.575437,12.730362 0,7.015832 -4.73527,12.730341 -10.575437,12.730341 -5.840167,0 -10.575438,-5.714509 -10.575438,-12.730341 z m 24.41295,172.736728 c -5.577096,0 -10.049296,-5.71451 -10.049296,-12.73037 0,-7.01583 4.524814,-12.73034 10.049296,-12.73034 5.577098,0 10.101911,5.71451 10.101911,12.73034 0,7.01586 -4.524813,12.73037 -10.101911,12.73037 z"
       id="path58"
       style="fill:#0079ff;fill-opacity:1;stroke-width:0.54560721" />
    <path
       sodipodi:type="star"
       style="fill:#000000;fill-opacity:1;fill-rule:evenodd;stroke-width:0.26458332"
       id="path109"
       sodipodi:sides="6"
       sodipodi:cx="162.30084"
       sodipodi:cy="166.28094"
       sodipodi:r1="10.502026"
       sodipodi:r2="9.0950212"
       sodipodi:arg1="-0.52807445"
       sodipodi:arg2="-0.0044756728"
       inkscape:flatsided="true"
       inkscape:rounded="0"
       inkscape:randomized="0"
       d="m 171.37227,160.98928 0.047,10.50192 -9.07142,5.29167 -9.11844,-5.21026 -0.047,-10.50192 9.07143,-5.29167 z"
       transform="matrix(2.4528262,0,0,2.3399822,-195.9171,-307.5089)" />
    <path
       sodipodi:type="star"
       style="fill:#000000;fill-opacity:1;fill-rule:evenodd;stroke-width:0.26458332"
       id="path109-1"
       sodipodi:sides="6"
       sodipodi:cx="162.30084"
       sodipodi:cy="166.28094"
       sodipodi:r1="10.502026"
       sodipodi:r2="9.0950212"
       sodipodi:arg1="-0.52807445"
       sodipodi:arg2="-0.0044756728"
       inkscape:flatsided="true"
       inkscape:rounded="0"
       inkscape:randomized="0"
       d="m 171.37227,160.98928 0.047,10.50192 -9.07142,5.29167 -9.11844,-5.21026 -0.047,-10.50192 9.07143,-5.29167 z"
       transform="matrix(2.4528262,0,0,2.3399822,-173.43588,-270.74269)" />
    <path
       sodipodi:type="star"
       style="fill:#000000;fill-opacity:1;fill-rule:evenodd;stroke-width:0.26458332"
       id="path109-1-3"
       sodipodi:sides="6"
       sodipodi:cx="162.30084"
       sodipodi:cy="166.28094"
       sodipodi:r1="10.502026"
       sodipodi:r2="9.0950212"
       sodipodi:arg1="-0.52807445"
       sodipodi:arg2="-0.0044756728"
       inkscape:flatsided="true"
       inkscape:rounded="0"
       inkscape:randomized="0"
       d="m 171.37227,160.98928 0.047,10.50192 -9.07142,5.29167 -9.11844,-5.21026 -0.047,-10.50192 9.07143,-5.29167 z"
       transform="matrix(2.4528262,0,0,2.3399822,-176.6055,-195.21806)" />
    <path
       sodipodi:type="star"
       style="fill:#000000;fill-opacity:1;fill-rule:evenodd;stroke-width:0.26458332"
       id="path109-1-3-3"
       sodipodi:sides="6"
       sodipodi:cx="162.30084"
       sodipodi:cy="166.28094"
       sodipodi:r1="10.502026"
       sodipodi:r2="9.0950212"
       sodipodi:arg1="-0.52807445"
       sodipodi:arg2="-0.0044756728"
       inkscape:flatsided="true"
       inkscape:rounded="0"
       inkscape:randomized="0"
       d="m 171.37227,160.98928 0.047,10.50192 -9.07142,5.29167 -9.11844,-5.21026 -0.047,-10.50192 9.07143,-5.29167 z"
       transform="matrix(2.4528262,0,0,2.3399822,-199.12909,-143.42362)" />
  </g>
</svg>
